<mxfile host="app.diagrams.net" modified="2020-04-29T19:17:53.338Z" agent="5.0 (X11; Linux x86_64) AppleWebKit/537.36 (KHTML, like Gecko) Chrome/81.0.4044.122 Safari/537.36" etag="EX3kVEKqhpH9Gh8rrjRO" version="13.0.3" type="github">
  <diagram id="zZNCxOsC6KTlCl_vhrBy" name="Page-1">
    <mxGraphModel dx="1954" dy="1773" grid="1" gridSize="10" guides="1" tooltips="1" connect="1" arrows="1" fold="1" page="1" pageScale="1" pageWidth="850" pageHeight="1100" math="1" shadow="0">
      <root>
        <mxCell id="0" />
        <mxCell id="1" parent="0" />
        <mxCell id="2PwtPd-8d50xMEnOrsVB-24" value="" style="html=1;outlineConnect=0;fillColor=#f5f5f5;strokeColor=#666666;gradientColor=#b3b3b3;gradientDirection=south;strokeWidth=2;shape=mxgraph.networks.cloud;" parent="1" vertex="1">
          <mxGeometry x="239" y="30" width="117" height="70" as="geometry" />
        </mxCell>
        <mxCell id="2PwtPd-8d50xMEnOrsVB-13" style="edgeStyle=orthogonalEdgeStyle;orthogonalLoop=1;jettySize=auto;html=1;entryX=0.26;entryY=0.22;entryDx=0;entryDy=0;entryPerimeter=0;endArrow=none;endFill=0;rounded=1;strokeWidth=2;exitX=1;exitY=0.5;exitDx=0;exitDy=0;exitPerimeter=0;" parent="1" source="2PwtPd-8d50xMEnOrsVB-3" target="2PwtPd-8d50xMEnOrsVB-24" edge="1">
          <mxGeometry relative="1" as="geometry">
            <mxPoint x="239.32999999999993" y="82.79999999999995" as="targetPoint" />
            <Array as="points">
              <mxPoint x="128" y="-30" />
              <mxPoint x="269" y="-30" />
            </Array>
            <mxPoint x="210" y="-90" as="sourcePoint" />
          </mxGeometry>
        </mxCell>
        <mxCell id="2PwtPd-8d50xMEnOrsVB-3" value="" style="points=[[0.5,0,0],[1,0.5,0],[0.5,1,0],[0,0.5,0],[0.145,0.145,0],[0.8555,0.145,0],[0.855,0.8555,0],[0.145,0.855,0]];verticalLabelPosition=bottom;html=1;verticalAlign=top;aspect=fixed;align=center;pointerEvents=1;shape=mxgraph.cisco19.rect;prIcon=router;fillColor=#FAFAFA;strokeColor=#005073;strokeWidth=2;" parent="1" vertex="1">
          <mxGeometry x="42" y="-74" width="86" height="86" as="geometry" />
        </mxCell>
        <mxCell id="2PwtPd-8d50xMEnOrsVB-6" style="edgeStyle=orthogonalEdgeStyle;rounded=1;orthogonalLoop=1;jettySize=auto;html=1;exitX=0.5;exitY=1;exitDx=0;exitDy=0;exitPerimeter=0;entryX=0.5;entryY=0;entryDx=0;entryDy=0;entryPerimeter=0;endArrow=none;endFill=0;strokeWidth=2;" parent="1" source="2PwtPd-8d50xMEnOrsVB-4" target="2PwtPd-8d50xMEnOrsVB-5" edge="1">
          <mxGeometry relative="1" as="geometry" />
        </mxCell>
        <mxCell id="2PwtPd-8d50xMEnOrsVB-14" style="edgeStyle=orthogonalEdgeStyle;orthogonalLoop=1;jettySize=auto;html=1;exitX=0;exitY=0.5;exitDx=0;exitDy=0;exitPerimeter=0;endArrow=none;endFill=0;rounded=1;strokeWidth=2;entryX=0.5;entryY=1;entryDx=0;entryDy=0;entryPerimeter=0;" parent="1" source="2PwtPd-8d50xMEnOrsVB-4" target="2PwtPd-8d50xMEnOrsVB-24" edge="1">
          <mxGeometry relative="1" as="geometry">
            <mxPoint x="406" y="84" as="targetPoint" />
            <Array as="points">
              <mxPoint x="298" y="175" />
            </Array>
          </mxGeometry>
        </mxCell>
        <mxCell id="QFQ0FHn7_Ai3rc_ZJZsc-43" style="edgeStyle=orthogonalEdgeStyle;rounded=1;orthogonalLoop=1;jettySize=auto;html=1;exitX=1;exitY=0.5;exitDx=0;exitDy=0;exitPerimeter=0;entryX=0.5;entryY=1;entryDx=0;entryDy=0;entryPerimeter=0;strokeWidth=2;endArrow=none;endFill=0;" edge="1" parent="1" source="2PwtPd-8d50xMEnOrsVB-4" target="2PwtPd-8d50xMEnOrsVB-45">
          <mxGeometry relative="1" as="geometry" />
        </mxCell>
        <mxCell id="2PwtPd-8d50xMEnOrsVB-4" value="" style="points=[[0.5,0,0],[1,0.5,0],[0.5,1,0],[0,0.5,0],[0.145,0.145,0],[0.8555,0.145,0],[0.855,0.8555,0],[0.145,0.855,0]];verticalLabelPosition=bottom;html=1;verticalAlign=top;aspect=fixed;align=center;pointerEvents=1;shape=mxgraph.cisco19.rect;prIcon=router;fillColor=#FAFAFA;strokeColor=#005073;strokeWidth=2;" parent="1" vertex="1">
          <mxGeometry x="470.5" y="130" width="86" height="86" as="geometry" />
        </mxCell>
        <mxCell id="2PwtPd-8d50xMEnOrsVB-36" style="edgeStyle=orthogonalEdgeStyle;rounded=1;orthogonalLoop=1;jettySize=auto;html=1;entryX=0.5;entryY=0;entryDx=0;entryDy=0;endArrow=none;endFill=0;strokeWidth=2;" parent="1" source="2PwtPd-8d50xMEnOrsVB-5" target="QFQ0FHn7_Ai3rc_ZJZsc-25" edge="1">
          <mxGeometry relative="1" as="geometry">
            <mxPoint x="485" y="390" as="targetPoint" />
          </mxGeometry>
        </mxCell>
        <mxCell id="2PwtPd-8d50xMEnOrsVB-37" style="edgeStyle=orthogonalEdgeStyle;rounded=1;orthogonalLoop=1;jettySize=auto;html=1;exitX=0.015;exitY=0.015;exitDx=0;exitDy=0;exitPerimeter=0;endArrow=none;endFill=0;strokeWidth=2;entryX=0.5;entryY=0;entryDx=0;entryDy=0;" parent="1" source="2PwtPd-8d50xMEnOrsVB-5" edge="1">
          <mxGeometry relative="1" as="geometry">
            <Array as="points">
              <mxPoint x="-69" y="251" />
            </Array>
            <mxPoint x="-68.5" y="530" as="targetPoint" />
          </mxGeometry>
        </mxCell>
        <mxCell id="2PwtPd-8d50xMEnOrsVB-38" style="edgeStyle=orthogonalEdgeStyle;rounded=1;orthogonalLoop=1;jettySize=auto;html=1;exitX=1;exitY=0.5;exitDx=0;exitDy=0;exitPerimeter=0;entryX=0.5;entryY=0;entryDx=0;entryDy=0;endArrow=none;endFill=0;strokeWidth=2;" parent="1" source="2PwtPd-8d50xMEnOrsVB-5" target="QFQ0FHn7_Ai3rc_ZJZsc-37" edge="1">
          <mxGeometry relative="1" as="geometry">
            <mxPoint x="1025" y="390" as="targetPoint" />
          </mxGeometry>
        </mxCell>
        <mxCell id="2PwtPd-8d50xMEnOrsVB-40" style="edgeStyle=orthogonalEdgeStyle;rounded=1;orthogonalLoop=1;jettySize=auto;html=1;exitX=0;exitY=0.5;exitDx=0;exitDy=0;exitPerimeter=0;endArrow=none;endFill=0;strokeWidth=2;entryX=0.487;entryY=-0.014;entryDx=0;entryDy=0;entryPerimeter=0;" parent="1" source="2PwtPd-8d50xMEnOrsVB-5" edge="1">
          <mxGeometry relative="1" as="geometry">
            <Array as="points">
              <mxPoint x="218" y="295" />
            </Array>
            <mxPoint x="218.1199999999999" y="529.1599999999999" as="targetPoint" />
          </mxGeometry>
        </mxCell>
        <mxCell id="2PwtPd-8d50xMEnOrsVB-5" value="" style="points=[[0.015,0.015,0],[0.985,0.015,0],[0.985,0.985,0],[0.015,0.985,0],[0.25,0,0],[0.5,0,0],[0.75,0,0],[1,0.25,0],[1,0.5,0],[1,0.75,0],[0.75,1,0],[0.5,1,0],[0.25,1,0],[0,0.75,0],[0,0.5,0],[0,0.25,0]];verticalLabelPosition=bottom;html=1;verticalAlign=top;aspect=fixed;align=center;pointerEvents=1;shape=mxgraph.cisco19.rect;prIcon=l3_switch;fillColor=#FAFAFA;strokeColor=#005073;strokeWidth=2;" parent="1" vertex="1">
          <mxGeometry x="466.5" y="250" width="90" height="90" as="geometry" />
        </mxCell>
        <mxCell id="2PwtPd-8d50xMEnOrsVB-22" style="edgeStyle=orthogonalEdgeStyle;rounded=1;orthogonalLoop=1;jettySize=auto;html=1;entryX=0.5;entryY=1;entryDx=0;entryDy=0;entryPerimeter=0;dashed=1;endArrow=none;endFill=0;strokeWidth=2;" parent="1" source="2PwtPd-8d50xMEnOrsVB-21" target="2PwtPd-8d50xMEnOrsVB-3" edge="1">
          <mxGeometry relative="1" as="geometry">
            <Array as="points">
              <mxPoint x="91" y="80" />
            </Array>
          </mxGeometry>
        </mxCell>
        <mxCell id="2PwtPd-8d50xMEnOrsVB-23" style="edgeStyle=orthogonalEdgeStyle;rounded=1;orthogonalLoop=1;jettySize=auto;html=1;entryX=0.5;entryY=0;entryDx=0;entryDy=0;entryPerimeter=0;dashed=1;endArrow=none;endFill=0;strokeWidth=2;" parent="1" source="2PwtPd-8d50xMEnOrsVB-21" target="2PwtPd-8d50xMEnOrsVB-4" edge="1">
          <mxGeometry relative="1" as="geometry" />
        </mxCell>
        <mxCell id="2PwtPd-8d50xMEnOrsVB-21" value="" style="pointerEvents=1;shadow=0;dashed=0;html=1;strokeColor=#6c8ebf;fillColor=#dae8fc;labelPosition=center;verticalLabelPosition=bottom;verticalAlign=top;outlineConnect=0;align=center;shape=mxgraph.office.servers.tunnel_straight;gradientColor=#7ea6e0;strokeWidth=2;" parent="1" vertex="1">
          <mxGeometry x="226" y="70" width="140" height="20" as="geometry" />
        </mxCell>
        <mxCell id="2PwtPd-8d50xMEnOrsVB-30" style="edgeStyle=orthogonalEdgeStyle;rounded=1;orthogonalLoop=1;jettySize=auto;html=1;entryX=0.5;entryY=0.08;entryDx=0;entryDy=0;entryPerimeter=0;endArrow=none;endFill=0;strokeWidth=2;exitX=0.5;exitY=1;exitDx=0;exitDy=0;" parent="1" source="QFQ0FHn7_Ai3rc_ZJZsc-54" target="2PwtPd-8d50xMEnOrsVB-24" edge="1">
          <mxGeometry relative="1" as="geometry">
            <mxPoint x="297.49999999999955" y="-150" as="sourcePoint" />
          </mxGeometry>
        </mxCell>
        <mxCell id="2PwtPd-8d50xMEnOrsVB-39" style="edgeStyle=orthogonalEdgeStyle;rounded=1;orthogonalLoop=1;jettySize=auto;html=1;exitX=0.5;exitY=0;exitDx=0;exitDy=0;entryX=0.985;entryY=0.985;entryDx=0;entryDy=0;entryPerimeter=0;endArrow=none;endFill=0;strokeWidth=2;" parent="1" source="QFQ0FHn7_Ai3rc_ZJZsc-31" target="2PwtPd-8d50xMEnOrsVB-5" edge="1">
          <mxGeometry relative="1" as="geometry">
            <Array as="points">
              <mxPoint x="801" y="339" />
            </Array>
            <mxPoint x="755" y="390" as="sourcePoint" />
          </mxGeometry>
        </mxCell>
        <mxCell id="QFQ0FHn7_Ai3rc_ZJZsc-12" value="&lt;b&gt;&lt;font color=&quot;#ffffff&quot; style=&quot;font-size: 40px&quot;&gt;Advanced +&lt;/font&gt;&lt;/b&gt;" style="rounded=0;whiteSpace=wrap;html=1;fillColor=#bac8d3;strokeColor=#23445d;verticalAlign=bottom;" vertex="1" parent="1">
          <mxGeometry x="-188.5" y="520" width="240" height="340" as="geometry" />
        </mxCell>
        <mxCell id="QFQ0FHn7_Ai3rc_ZJZsc-14" value="" style="rounded=1;whiteSpace=wrap;html=1;gradientColor=#b3b3b3;fillColor=#f5f5f5;strokeColor=#666666;" vertex="1" parent="1">
          <mxGeometry x="-198.5" y="600" width="260" height="60" as="geometry" />
        </mxCell>
        <mxCell id="QFQ0FHn7_Ai3rc_ZJZsc-15" value="" style="rounded=1;whiteSpace=wrap;html=1;gradientColor=#b3b3b3;fillColor=#f5f5f5;strokeColor=#666666;" vertex="1" parent="1">
          <mxGeometry x="-198.5" y="670" width="260" height="60" as="geometry" />
        </mxCell>
        <mxCell id="QFQ0FHn7_Ai3rc_ZJZsc-16" value="" style="rounded=1;whiteSpace=wrap;html=1;gradientColor=#b3b3b3;fillColor=#f5f5f5;strokeColor=#666666;" vertex="1" parent="1">
          <mxGeometry x="-198.5" y="740" width="260" height="60" as="geometry" />
        </mxCell>
        <mxCell id="QFQ0FHn7_Ai3rc_ZJZsc-17" value="" style="rounded=1;whiteSpace=wrap;html=1;gradientColor=#b3b3b3;fillColor=#f5f5f5;strokeColor=#666666;" vertex="1" parent="1">
          <mxGeometry x="-198.5" y="530" width="260" height="60" as="geometry" />
        </mxCell>
        <mxCell id="QFQ0FHn7_Ai3rc_ZJZsc-18" value="&lt;span&gt;Containerizador A&lt;/span&gt;&lt;br&gt;&lt;span&gt;10.232.63.116&lt;/span&gt;" style="rounded=0;whiteSpace=wrap;html=1;fillColor=#bac8d3;strokeColor=#23445d;verticalAlign=bottom;" vertex="1" parent="1">
          <mxGeometry x="101.5" y="520" width="240" height="320" as="geometry" />
        </mxCell>
        <mxCell id="QFQ0FHn7_Ai3rc_ZJZsc-21" value="&lt;font style=&quot;font-size: 40px&quot; color=&quot;#ffffff&quot;&gt;&lt;b&gt;SS&lt;/b&gt;&lt;/font&gt;" style="rounded=1;whiteSpace=wrap;html=1;gradientColor=#97d077;fillColor=#d5e8d4;strokeColor=#82b366;" vertex="1" parent="1">
          <mxGeometry x="91" y="600" width="260" height="60" as="geometry" />
        </mxCell>
        <mxCell id="QFQ0FHn7_Ai3rc_ZJZsc-22" value="Hosted&lt;br&gt;10.232.63.115" style="rounded=1;whiteSpace=wrap;html=1;gradientColor=#ea6b66;fillColor=#f8cecc;strokeColor=#b85450;" vertex="1" parent="1">
          <mxGeometry x="91" y="670" width="260" height="60" as="geometry" />
        </mxCell>
        <mxCell id="QFQ0FHn7_Ai3rc_ZJZsc-23" value="&lt;b&gt;&lt;font style=&quot;font-size: 40px&quot;&gt;API&lt;/font&gt;&lt;/b&gt;" style="rounded=1;whiteSpace=wrap;html=1;gradientColor=#97d077;fillColor=#d5e8d4;strokeColor=#82b366;" vertex="1" parent="1">
          <mxGeometry x="90" y="740" width="260" height="60" as="geometry" />
        </mxCell>
        <mxCell id="QFQ0FHn7_Ai3rc_ZJZsc-24" value="&lt;span&gt;Containerizador B&lt;/span&gt;&lt;br&gt;&lt;span&gt;10.232.63.11&lt;/span&gt;" style="rounded=0;whiteSpace=wrap;html=1;fillColor=#bac8d3;strokeColor=#23445d;verticalAlign=bottom;" vertex="1" parent="1">
          <mxGeometry x="391.5" y="520" width="240" height="320" as="geometry" />
        </mxCell>
        <mxCell id="QFQ0FHn7_Ai3rc_ZJZsc-25" value="&lt;span&gt;SS&lt;/span&gt;&lt;br&gt;&lt;span&gt;10.232.63.12&lt;/span&gt;" style="rounded=1;whiteSpace=wrap;html=1;gradientColor=#97d077;fillColor=#d5e8d4;strokeColor=#82b366;" vertex="1" parent="1">
          <mxGeometry x="381.5" y="530" width="260" height="60" as="geometry" />
        </mxCell>
        <mxCell id="QFQ0FHn7_Ai3rc_ZJZsc-26" value="" style="rounded=1;whiteSpace=wrap;html=1;gradientColor=#b3b3b3;fillColor=#f5f5f5;strokeColor=#666666;" vertex="1" parent="1">
          <mxGeometry x="381.5" y="600" width="260" height="60" as="geometry" />
        </mxCell>
        <mxCell id="QFQ0FHn7_Ai3rc_ZJZsc-27" value="" style="rounded=1;whiteSpace=wrap;html=1;gradientColor=#b3b3b3;fillColor=#f5f5f5;strokeColor=#666666;" vertex="1" parent="1">
          <mxGeometry x="381.5" y="670" width="260" height="60" as="geometry" />
        </mxCell>
        <mxCell id="QFQ0FHn7_Ai3rc_ZJZsc-28" value="" style="rounded=1;whiteSpace=wrap;html=1;gradientColor=#b3b3b3;fillColor=#f5f5f5;strokeColor=#666666;" vertex="1" parent="1">
          <mxGeometry x="381.5" y="740" width="260" height="60" as="geometry" />
        </mxCell>
        <mxCell id="QFQ0FHn7_Ai3rc_ZJZsc-30" value="&lt;span&gt;Containerizador C&lt;/span&gt;&lt;br&gt;&lt;span&gt;10.232.63.21&lt;/span&gt;" style="rounded=0;whiteSpace=wrap;html=1;fillColor=#bac8d3;strokeColor=#23445d;verticalAlign=bottom;" vertex="1" parent="1">
          <mxGeometry x="681.5" y="520" width="240" height="320" as="geometry" />
        </mxCell>
        <mxCell id="QFQ0FHn7_Ai3rc_ZJZsc-31" value="&lt;span&gt;Denwa Virtual&lt;/span&gt;&lt;br&gt;&lt;span&gt;10.232.63.22&lt;/span&gt;" style="rounded=1;whiteSpace=wrap;html=1;gradientColor=#97d077;fillColor=#d5e8d4;strokeColor=#82b366;" vertex="1" parent="1">
          <mxGeometry x="671.5" y="530" width="260" height="60" as="geometry" />
        </mxCell>
        <mxCell id="QFQ0FHn7_Ai3rc_ZJZsc-32" value="" style="rounded=1;whiteSpace=wrap;html=1;fillColor=#f5f5f5;strokeColor=#666666;gradientColor=#b3b3b3;" vertex="1" parent="1">
          <mxGeometry x="671.5" y="600" width="260" height="60" as="geometry" />
        </mxCell>
        <mxCell id="QFQ0FHn7_Ai3rc_ZJZsc-33" value="" style="rounded=1;whiteSpace=wrap;html=1;gradientColor=#b3b3b3;fillColor=#f5f5f5;strokeColor=#666666;" vertex="1" parent="1">
          <mxGeometry x="671.5" y="670" width="260" height="60" as="geometry" />
        </mxCell>
        <mxCell id="QFQ0FHn7_Ai3rc_ZJZsc-34" value="" style="rounded=1;whiteSpace=wrap;html=1;gradientColor=#b3b3b3;fillColor=#f5f5f5;strokeColor=#666666;" vertex="1" parent="1">
          <mxGeometry x="671.5" y="740" width="260" height="60" as="geometry" />
        </mxCell>
        <mxCell id="QFQ0FHn7_Ai3rc_ZJZsc-36" value="&lt;span&gt;WholeSale&lt;/span&gt;&lt;br&gt;&lt;span&gt;10.232.63.105&lt;/span&gt;" style="rounded=0;whiteSpace=wrap;html=1;fillColor=#bac8d3;strokeColor=#23445d;verticalAlign=bottom;" vertex="1" parent="1">
          <mxGeometry x="971.5" y="520" width="240" height="320" as="geometry" />
        </mxCell>
        <mxCell id="QFQ0FHn7_Ai3rc_ZJZsc-37" value="" style="rounded=1;whiteSpace=wrap;html=1;fillColor=#f5f5f5;strokeColor=#666666;gradientColor=#b3b3b3;" vertex="1" parent="1">
          <mxGeometry x="961.5" y="530" width="260" height="60" as="geometry" />
        </mxCell>
        <mxCell id="QFQ0FHn7_Ai3rc_ZJZsc-38" value="" style="rounded=1;whiteSpace=wrap;html=1;gradientColor=#b3b3b3;fillColor=#f5f5f5;strokeColor=#666666;" vertex="1" parent="1">
          <mxGeometry x="961.5" y="600" width="260" height="60" as="geometry" />
        </mxCell>
        <mxCell id="QFQ0FHn7_Ai3rc_ZJZsc-39" value="" style="rounded=1;whiteSpace=wrap;html=1;gradientColor=#b3b3b3;fillColor=#f5f5f5;strokeColor=#666666;" vertex="1" parent="1">
          <mxGeometry x="961.5" y="670" width="260" height="60" as="geometry" />
        </mxCell>
        <mxCell id="QFQ0FHn7_Ai3rc_ZJZsc-40" value="" style="rounded=1;whiteSpace=wrap;html=1;gradientColor=#b3b3b3;fillColor=#f5f5f5;strokeColor=#666666;" vertex="1" parent="1">
          <mxGeometry x="961.5" y="740" width="260" height="60" as="geometry" />
        </mxCell>
        <mxCell id="QFQ0FHn7_Ai3rc_ZJZsc-42" value="" style="html=1;outlineConnect=0;fillColor=#f5f5f5;strokeColor=#666666;gradientColor=#b3b3b3;gradientDirection=south;strokeWidth=2;shape=mxgraph.networks.cloud;" vertex="1" parent="1">
          <mxGeometry x="760" y="70" width="117" height="70" as="geometry" />
        </mxCell>
        <mxCell id="2PwtPd-8d50xMEnOrsVB-45" value="" style="verticalLabelPosition=bottom;html=1;verticalAlign=top;align=center;strokeColor=#6c8ebf;fillColor=#dae8fc;shape=mxgraph.azure.azure_website;pointerEvents=1;gradientColor=#7ea6e0;" parent="1" vertex="1">
          <mxGeometry x="800" y="100" width="54" height="52.31" as="geometry" />
        </mxCell>
        <mxCell id="QFQ0FHn7_Ai3rc_ZJZsc-45" style="edgeStyle=orthogonalEdgeStyle;rounded=1;orthogonalLoop=1;jettySize=auto;html=1;entryX=0.7;entryY=0.07;entryDx=0;entryDy=0;entryPerimeter=0;endArrow=none;endFill=0;strokeWidth=2;" edge="1" parent="1" source="QFQ0FHn7_Ai3rc_ZJZsc-44" target="2PwtPd-8d50xMEnOrsVB-24">
          <mxGeometry relative="1" as="geometry">
            <Array as="points">
              <mxPoint x="321" y="-30" />
            </Array>
          </mxGeometry>
        </mxCell>
        <mxCell id="QFQ0FHn7_Ai3rc_ZJZsc-46" style="edgeStyle=orthogonalEdgeStyle;rounded=1;orthogonalLoop=1;jettySize=auto;html=1;endArrow=none;endFill=0;strokeWidth=2;" edge="1" parent="1" source="QFQ0FHn7_Ai3rc_ZJZsc-44" target="QFQ0FHn7_Ai3rc_ZJZsc-42">
          <mxGeometry relative="1" as="geometry">
            <Array as="points">
              <mxPoint x="819" y="-30" />
            </Array>
          </mxGeometry>
        </mxCell>
        <mxCell id="QFQ0FHn7_Ai3rc_ZJZsc-44" value="" style="pointerEvents=1;shadow=0;dashed=0;html=1;strokeColor=#6c8ebf;labelPosition=center;verticalLabelPosition=bottom;verticalAlign=top;align=center;fillColor=#dae8fc;shape=mxgraph.mscae.intune.user_group;gradientColor=#7ea6e0;" vertex="1" parent="1">
          <mxGeometry x="610" y="-80" width="100" height="74" as="geometry" />
        </mxCell>
        <mxCell id="QFQ0FHn7_Ai3rc_ZJZsc-53" value="" style="shape=image;verticalLabelPosition=bottom;labelBackgroundColor=#ffffff;verticalAlign=top;aspect=fixed;imageAspect=0;image=data:image/png,iVBORw0KGgoAAAANSUhEUgAAAIAAAACACAYAAADDPmHLAAAgAElEQVR4Xu1993sd53nlmZnb0BtJgZJIExQpuiiWFEnrIsppluPsJs/Gu0m2Pbub/fs2yS+7PyWOvY6dJ45VSFHsBWAFOwngAvfilpnZ57xlZu4FSBFFgkzhyjBJ3Dbzved7y3nLFwDA7Oxsyj93H1+tFTh8+HAQOABmZma+Wnf/Fb/bubk57ALgKwyCXQB8hYXPW98FwC4Anm4CiJBtfYibmQJBYh/LX4gLYn8G8rQ8Uv2rvCLo80/9LX5x2dMBUvu7ejb5Q/+tn6gvSRHop9tPWLiWbb3rL82H9ft4n6kB+IJtdQwzAMSZMHLhUwBhBgAXpLwlE6aKTv7pv0v70eCo6Vv3ns8gAPmjAAj4vdnPl0Ze23oh68lyhwFAAcSyD/UR6Y8INN/JvQBQoek7KDh97ToQcCWSaQR9qasKAjAB0kR/HfC7CQL++Xw+dh4AmZqmCeA/ugYAX3ADAEKkhV3t6lp3rAouF3zUJ/xecyIK3783e4q/cA2gpigAP8e1wC4AshXYNhPQTzEZAFIBgdth3YGp7MLcFyAWUhF8jCDt6J+mtoOgtMZup5kg+cZckzhSFFtFEPAdqgGerEt++0HxJdIArop9R/vihlDhqeBcTO40CljSLgIBQ4ggoMBcZZtzx+0e+E6mOenTJgUtoK4gPy/XALsA6GMCt00DuIwzdez+fVE1uO0vWnR36buqBVJqjCSz2aq2bTen9CcSwOx5gBLSNEKaKqgKgYKYIPlPAJUiDEpiAnYB8DkDgIvuDlwW5xW0q4gyUVGFNBNBCoZvagLotPFPdRhV+Pw0/k5Ng/6oBkhB88CfsoBA/Ar+TxSMh4M0J7wm/bxdAHyuANBdp05XHu7l8k+QpgniuIMUHQRU+UGsP9ku933sXjvfTeG3+wDA58tAUEUYDAKoIE1LYjYEAaYB1J+w69kFwGy6HlGwPTyAhm8u/kDUcvHB57tI0ibiZAlxvIRudxFJ2kCarmakjXr0FFnB9gc0CwSARxXc9VUEGEQUjqJa2YMwGkOAIQRBBRDH0ekGjwLykPK3391b/w522AlM1OaKug0QpMV4m1Kl/W4iSR6j1b2FVnsezdVb6MZLiJMGQlPdSuQRAFTx6kyKcxhQCzivUAZSAmAElfJeDA8eRLW8H+VoH4JgCECt4CiqKfCw8nkVPu9rRwEgzpkBQIgbBwDNvNDCHaTpAjrdW6i3zqK+cg5Ly+fR7i4gTlcRhQFCKg36eAztDAcSIgaJ/OiD/DEBUkaQjmOg/BLGR7+BkYGjGK4cRhhOABgBgjLESbR39dPGzyMQdhAA3KVKvKgRCBUAGuAbANpI8RCrrSu4v/hrLK6cxnLzIuJ0RfwBCj8MAk0hGG2gwleHTn7MOoiZSCIE6RBqpf0YHfoGJoZfw+TQa4iivQDGxUSoj6CizvMELvoncYu/vdDYYQCoh04nTzz4oAwkge5oSjVoIU0fYLl5Djfu/r0AoB3PIwjbiEppxuDKSzUIMOGrXkmM4hVAUEPIZ0coB1MYqr6KqZHX8cLEOyiVphEGU0jTKtK0gkAcwmKyyUkp9zVyb6GQkFgHBf1M17MA6UnvWQ9kWwfkjgPAzQDJGWHwDADc1kHQRprex3LzNK7d+b9YapxBB/cRBl1EkTHHziCrEuHHiOBVkfBJc+xoBeSzQ5QCmoHD2DP6NqYnf08AEIBmoIyUGkBMCX0A+hGuXvLEkPoGmaHICKpcRMZnWFiZi91DVCO0LLPpsNLspkdF/F6NRfLvyj8p90+2BoJNAmDWsoFb+XI1AWucQNmpqgEcAPXmKVy783dYWj2LJFhAGMSIlAhwQtCERgCkiMNc9fuSqQlQEJSCMdTKB7Bn5Ht4cerHKEXTSINxIZLIOpJyIMfA72cUoZ+m/IEyjfxR7kLzEzlLmfkcosbsx51co5bFWeV3eGo7pSkzjSOAM/JKPsxJLdc6HpnodeQg2ZwZ2iQAtiMd7KL3KIA+gPIAwtwSAGghxT3UG5/g2r2/Qb15DjHqCIMEYUin0R1AW3Zu8EBVf543sv1qqy0ACIdRK+/H1Mi7eHHyzwwAo6bNCQBGE7wIAsAdSTNRlnEIerJJOQB6/QYjqsxBIfEknIMILoeKKxPVAAoaJbmKGqBoGjRVrZS3v+a3DgCUtWsAS+IaD6AAIBlDH+Au6o2TuHb/fxsAGP6RpjVn0U2ARQD8RGp6V/+ZqrQtxx1bCgaFB9gz8h72T/wEUekFiwLU1icpI4EAaUDiSX/H6IBcQabzDFDiL5gG0BRyURAOAFNWFqryPfo+A4FpMgmHDQR5BOMmwF4kb3nuAGA8gHhxvixc/FWk6R0DwN9gafU8EqzKIon37/kj2zhu76lAVVKCJBOQ69wAUTiAWmVCNMD0+J+LD4BgJKOjEzKEkoF0EtjUrqj/wt4VbFAT5UR27z4sCq1AePWgJPcHVLTmA/RXO7m9K1QrPScmQLWALrERQbKwbQRpUzVA86SYgKXVi4ixmmmATPm5n1ZI6OYawLalqWzVAFXUKmOYzACwHwhGXbmDAEhSOoOFPIBtb6r+TEgFsqjXGyr+yxHdZ69sJ2dRRGaz1DysLWhyMOURSQ6Azal/vmtTPsCslYRtxQW0QE1sXSrCoVosFHJIjr8JCABO4dq9v8XS6gUhgMQHcA3gxR0FE5n91S+w4EjzqyICoEwAHMf0xE9Qil5CgDGQWKCNTpISQE5CzH8hJKRzKSFrXrpWTBTlnnkh3SzRBK+Iekmzlq7mBPZyH+5SEnAKvB4/wbWZQsOk7c7g5oW/JQAc3nKzCPeoeru6qH0AYDKHfH96H/XGp7h2/2+x1CQAVsRBLAIgWxNbm2z3qOzySMqsgAJgHJMj72F68j8KAJCOISCzxEggMQEKAGiXEyDsCLWcpgxNCU7LYIqADYWi2gt1B5nB0JyGJqj68h8CMPfmmZMYRICKRR1mHnp2WhEAWxP+pgEwN7ddYSABoBpA8CwLoQ8t8GghTR4KAK7e/TssNc8hQV0ygUUAZBukEJpna28gyIpJE6AU1lAtTWBq9D28MPmXKIUFAIQB0tgqhkQxMRwkH0D2sS6JKSai3PwEWRmZe+0EkaabFQx8pQHA6hZ643o6m9Q8JDYGEQTkI4YQCCv5JHPga7RjALiCmZnDdnObvQjnAXKVqDbNdp0AoC0AWGqcxjUBwFkkWDKhqML1dwgIPGLzXW87RwIG1w4JTUANtfIEJkePqwYIXxYqWDWAMoYSiSBBggaS9DE68V20k9vodBbR6dbtAwlc8hUM3QwAEskw50AAEAiWrJDCFDcddpdpgCCMEIZlVCqDqJSnUCl9DVGwB0EwkmU35dLXsbdbM8F6DZvyAebmLhsA+tO3GwOD+sWeC3CblttM1QCPegAQB4tmgzUPIASKm8Y+P8kVyvoAGMfk6Lt4YfInKEcvKxModQGhAkCKT7ropg/R7l7DSvsS6q0LaK7ex2rrEeJYTRf9kSDkDyuTlGkM0gogP/QlclBnrKdYDJqZCGGpjHK5htHhKYwMHsBQ5XdQKR1EGOzJzMAanybTkhtb7/VevUkAUAOwYXRrAMhrATxb5/w7b5k2MwfA1bt0AlUDpLLbNMIjAExpKDGUmh7xVLFrAWfdqAHCKqol+gDvYnryz1Eu0Qkct5CRgrFdiwba3RtYaZ3F4uoZLDRPo91dRqfbhNCFcg1GRAhxZYYhIR/NxFPRmXNfwZSHXBdJJ4K4jMGBEYwMHsLk8HEMVr+JcnTQ6hScbSySDPbd66mFDWJiCwDYqgnIrzTr2umRJB2mHABzDoBgSVWpUadZSC1yMLPAP00WxedFUQgA6AMQAN/H9MS/R7n0IoKA2UDVtSntMcvM0gU0W5ew2PwAjxon8bBxCnHCAhWvQM6/R3MH9pAkpzGVGbugQaVTwH593W4qTmelUsXI4GFMj/0Yo4Nvo1o5hjBgjUKBbrYvyH2mrRuBzQFgdhYzhwmAbXj0JUSUvCHC6XGTCHqEeuM05u79HRabZxFjUdQtk0FrWFB/Kxe/YDdlsc3VIA8QBQOolfcIEbR/gkTQfg0DhUE0rzztSi1Co3UWj5d/hcfNT/G4wVwEbTkzkSZg9wbDfIdn+aM+gshDRioPMV0hEHeBmEFGWMJQ7Wt4ceKPMT74HdQqryEMB7S4xfMNGQDs1gtO82YlsUkAWC5gqwB0x8z+zHj0AgC4C5kDuPHw/2CheQat7kMEYQdR5Kq3WFRWYIIKdlJoAOGHuQMjlMMRDNVexNTwcewb/1OUQlLBw4WcDvcqAbiEldVP8aj+czxufIqF1XNIae8FUHmPgtL76wEg992cMhavJ021liEMEMcpEiapWKxWPYCXxn+E8cHvYaDyhgJAuAdXZ7pQ/LdGTY6+zYp/s07g7DYBwJ23nusvdAilKoRmexYPVn6OxytnUG/cRBw3pCAEUvenO1I2PH24vs+UJRLnTIUfpFVUK3sxPnIUE8Pfw8TQHyGk/U+rIlM1LR6GrmKleRoPF36KhdUTWGidFodPXJ9Y6xbkIcIsMFGibVRDZJrIiCuhhJJUr9U3ECMPAAOVl/Hi6PsYG/geauXfRRQOAiErm/IFEjDbl+4YEzi3bQDoUwEFte3l3mm6gk48j+X2x6g3L2Fx5QY63RXEcRuB1PwxXWt0siRZiulzLRqRX0mmsYQgHUCt+gImRl/FyMDrGKy8LYWhaRJpFtFAJN492mg0zuDBwt9jYfVjLLY/FYFIVEEA0BUxVR4YAITR0ODG6hzNVEn1klUomgPp1oY7mW8ZrLyM6ZH3MVb7PmrlNxFGg9DP1eymdzEIPVHsdNqCM7izJiCjRX0ruUqzP1OqP3IBj9BN57DauYWV1j3xwrsEgEQKvVogy5lYiJlvHjoNDMtqqFamMDZ8CNXSIUSYQUrunxG9pJFVwIzvI3QEAA8NAAud0woAiqSrAHBbTlXtnmdWBuAb10ASRdRCKWL6l47TAhEoABj+Y4zWqAEMADR1/YUPGQOyU/UA1ACHtzo3yLaJkCMUoulS78bNagO4WlT5d9FNH6MdLyOOu6pGvTHElKLYSqsp1EUze51pFoouQikaQq0yJYQLkj1IAy0ETcMukoBdQRRyFxG6aDRO48HCP2CxdQqLnfPZDAMCQBhiU+XSVCLI0d9n9agehgYkoDQE1IIT+ylgfrByAPuHf2wAeANhaUAbmnoAoPtff74k9QAF65cro+Iv+32UzFBb945x69oAysILbd/S+i6+uY00qGudvxR6Up3rzev65g6eFpe6HXBHkX8apWuGWzqEkgGkCRtEqJ/5dS2kQQtImYruIEQHK2YCFttnsdSdVWHwfwQAE0sRzY7XH5pjVshOipq3tLWDgjiRlxAMfK+E+AEGKwexf/RPMFb7Lmrl19UESJ2jcw5FJnEnAVDQALmCyuNgrfF34LqLlqPAO3G1+MHUuJABysQpsq3ATxI4NLasA/AWsOLN2+dKWbiBxusEBBvmBGTdRLm2SZMyEFc19OPX0aeQKqCWFKPQB1imBlj8KRbb57AczyEhkSDDTMzJ89DMHVGDpIgscyhVI4T0GwoPDyT0tQ6AH2FUnEACYCjLE+lrHFmqBXauHsCcQNe2dMHcN3VCV+Nkkhwe6OeNmGprWdShTFogvX2uMrxRz5o3bTer8Au+QjEGttX2hs+sxConGM15K7aUKVuXxtQ2vk1jpDQBQRMImgiSFurNM7i/+A9Y6pzHSnwVSUIKmFCzNG7iRZxWf+LfSVkbESh/TQKEZjZcgxesu7yYJmB6nFHAd1GtvI4wHNb8RIZx/y7dbHnupBdY/Qr3af/enBM4dwWHJBmUj1QoAkDKKEz7KgBUuOqtJxpCm83UG+m/gSw+Klx7DrJ1MyP2DVpbUKyoddKEglWHUR90CCtI4oqJUmN5mgp2I7EWgRVJBMC9hX9EvX0OK/EVA4Da8zBl+Zjfn/ECVBCZ8Mn46LcRAFHsZDHZRq9c9uUhAF7C9NgfYmzwOwaAUSmVd92qRS75OoS9qbCNyD177SYBcBmHZug9aytW3n/D31g/rV+nhDxSk42EfX5BLDk2hYLXArk3u6l7yJ2kLCJwAGgJl8qjIwAIOP5F0q81Rt5IkwGEqS2l7FjucAKAKd+mAODuws9Qb5/BcvcyUmVtNBEldpyRim177XPJrJeQOKZcpITTGEopALHnMvykBMCLmB77fYwNvoNq9XVEoTarSHpMPkgBwJXzqsC1dOjG1nBTAJidu2DZwEgupajKirs/sHhX06AUfgcx2ugk+tNO2oglTfo0j/FZbogCYF2B8wI+Y6hkgOSOTQSuEgxGVZRLo9IkGmBUOpKYuFEnnkKj/WcxyjLqzdO4t/AzLLXPYKVzRTKAYgKskkexbStA1Wad6Dp+wP0PzQNQY1igkK2ZO4OE02CZAPgBRgffwUCVJoAJqlrGBKozWNw2OxQGzs6dNQCoelIQWAq16PGKOlZHjw5Wh9m1ZAVLzQXUWwtotBfRThpidxUkm33YwrDgQvwJLhIdwnKmkUTwAfMAEQbKIxgdmsZgdRrV8j6EbBolSZRl9xgFsBytLuVo9xZ/inrrHFY67gRqUaroF7cA4tJb74HTGAYA5RVMM7qLU2CtdZlcA/wAY4Nv9wLAoxxzAnO9uVNh4OxpBYDYJ9UCrgnc/Om1utPSBcIWGt3HWGo/wI0HV3D78VU8bsyj2X2INFrRkqueio6NgsEbRfQKAnr4CZs9Q1Hx3LGlgF1BFYwN7sNL+45h79hRTA0dkT4BUsTmdhrBRAAsYHn1JO4v/j3qrYtY7l7v0QAOAGk4yUxeoS/ROYDMZzemUjx6ZypSyyxTA7yE/eM0AQQAk0HUADQBVhlkBleLVZhG9llIX7QTOHvKAKDl07kGyMsiCX61j9yNjOObeLw6jweNG7hy5wxuPLyIeusOVpNHQNRAumUAqJupRJABgH1+LLogAKTmmP8ZAPZ+AwemfgcHpt6Q8rBIyrDMZ5MRMQaA5gncX/oHKQZZ7t5YHwBF4UvQo1GOC9kd3SxC0lSBi9N85Eio4P3jf2AA+CbCkBlKC1OVENb/lxK6cOcAMDt7AjMzRxAYOlX908Lm/rwDIElixGiiGyzj7vIV3F68iEu3T+HWo0voBAvohitCwKj3vRVfgEAzLSK+knr5gRRmRIiYBiYw0gqGKlPYO/oKZva9ha+/9C4Gy3tRDka5pFqlK6bEAUAN8FMstS9gpXNNC1jpA7A1XcrHCuGf+rpZZ3IW3NiOLfYPSH4qi1x0/ZgNfHH8hxgbfAsD1W8gDNmtxE2mO/xLBoBXDADaQJFN8iqQMESqACBoIMYy5pcv4MbiGVy+fRK3Hl1AHC0jCVZl9ysftvmHdtJQ05gvIYkfBYB4+fTcRTNUMFiexOTgIbyy7x1868DvYajyAsrBGMIgUhBIMQgBsIjl5incX/w5FlfPot66ktHLkbWmm2SEo8n7/XINkN2RpXD13y7KQGYfqUqPMEQATLyPsSEC4OsIQ84s0OJQBYGZVOM9eL1PDomfbS03FwXMflzQAL0AyBpaTBWyeiZmYWWwjJv1s7i+dAqX7nyIW4/PIwmbSNkBbMWSa5shnu0m5FUyEKIjABD1awAQ4UudHpeRfy+jFk1gvHoQR/Z9B98+8IcCgFI4jiig08j/OHuQxShLWCYVvPhLPG6cwkLjnKR9KXxSwFKO5na+HwASs7u41ehr/t7CRnGRtB6AWoP2fKh6EC9N/tAAcMw0AAGgzKhrSPcBiu1lG1ipnpduCgBXrpzA4cNqAvTCeFsWkrgUHQBBjDhtIE6XcWv5NK4tncTlux/i5sJ5xCy1tv67fjLIqSO92t5n8+fy31PoTOQoAHhBNAGszuXuZwimdQGRAGAcY7WDOLrv3+D1l/8Ig5VplMMxREFFhkM6ABgFcDbBg8V/xuOVT6QohIUowv9nfQFONOXdyrIePnDKQVDoBJaEkWkCoRWENTUNMP4+xofeQq16TMJU1QCMaLjRek3kDgLgExw+rCbAsu3mA3gixlufmV9P0E0b6CZLuLX8Ka4vncClex/i1sI5dKTWviNLbjUuBXQWKNacq7PnvaM434LSZhISAMawZQDwOkEl+jIAVA8IAN448EMMllUDMEKI2AIugyJbQFLH8uoFPFj6NR4vfywgKBkARBjijGkiJ2C3Mq/OmEBNTOasHakCYQ2NmhIK3LKDUq2EEobKRR9ANYCssSS+CIDeR28j6uZ0wCY1wKc4PEMAcJyKqjUtVyCSzV4JYaYAoAnopDQBn+La0glcvvcb3Fo4i06glT1C19A+m50zf74nP9Af6Hgs7LfNBY9t96d0zgQA/HEmMNHsXVpCLRzHuADgO3jjwB9hsDytAEAFJekCZtHnagaAh/Vf42H9Yzysn0Qpovq3HIZbgKzb1zKFWUTaZwa8izz/NRK6G7GGdEOVr+ElOoH0ASqvZk6g3IdrWi870PzRlh+bBMCZHABmf11VSwpXat7N2Qlo4RvoQAFwlSbg3r8KABgZsF9O7G7mJBWVv2N+PRPgMDHYiFfN3e8RCdWmjn5TPaHDH6PEAFA7gKN7CQBqAAJgDGW4BtCmFKCORusyHq98gIf1E3iwdEIYD9p+bVFXalbkUBCGh4EFa2goLOxhC1elC4lja6IBDNcOYf/YH2B04HVUK0cQBqxTZIOJjbfNb1nva8cAcPmcmQAusORGDYkagwsArK9OJnZgVXyAG8uncZUa4C4BcAadoC5OoFE3maXPIOA3aGFUttvNxsoiZM9pk5b6Ij5iPp8bqAMnUoRrAPA+hgwA1ADUENrtQwA00epex3LrDB6vnBQN0Om0EHcJWgKAr2OdgXf98Lu5JjRFNllE7iEL4DJAqnZiJrIqVcqDgxMYHZzB1ND3MFT5OkrRAc1XZCPrC7NufCG2AQGb0wCXz/cBwNO5vEhDq2FCnDMCACs5AO78K24SAGEdCXl3T5jYqDddpdzlURxohtEdrGwNHHryXqdy9Bp6h0YbXeUmQDTAd/HGAQJgv2iAUlo2APBbqJtb6Kb30U7mxBdYWj2HdruDbkeHSYcClLwuUWkk7lgdUlmMaop6TZw3Cp9dyKgiimoYHBjHUO1ljFRfQyU6iDDcWzCxBei7H5FVBG9NDWwOAFcu4PDMYR3qJBogb5dW22ut1WYGKOQ4bOBG/TSuLp7A5Tu/wY2FM+iGdcQhCz3clyzeTMFQyiZ68nNeASQfYx61puRorH3x9BpJEIkPUDuIV3sAMI5SUhIAyNcl5DAYWtaB8CG66S10YlYks6bPLliE4fOILf8gGoDgYXFJIUnuuQOJALT7WMkzbQytlmsoRxMoh2wLmwRSFoOQbNA8hxo43VV6S36OQiEW3YRHsE0A8Dyoxt/sdCnW5iVBG3HYxE0BwElcyjTAEuKQGuAJN1EwAWvuLXsur8d3ukQBoWXgOW7UBwgFAMoDHN33Pbzx8h9jSMLAcfEPItFgVq7VJQhbCMr0VR4hwUNxLnMHkxLWqmQ1g16q5s2imZdo5Rt+0a6tdNQEb1+ZxQEEmJJZhpxjLBVFVqPgQ69z59eHXj8plZ77T/na+e/y5xQAvU0+n3lkzJUr580J1N2iN++tN9z9lr8myiU+bwvjRwBcW/wEl+78GjcXTosJiEOqSr2J4lQUF1y2gftiIM+zq7UwLlL+VFWf09PawyHOm6T7IwPA13B077t448CfYFiIoDFESSQ/qgGAhJqcrejlNhA2gGBZRsqKbU4ZnlHb2bRyWQNerc6v855Bvex8jIzWDuhLpRzcpoKJxuBDahQ51lbr06UPQdrT87H4ltS2YRJ9bGCRibMsYg8AMlmpvzQ3d1VkWXx8JgAuzzIKOIJQBhm4draEcAYyBYGULxAAaOFm/QyuiQb4F9xY+BSdcElqBFj45uVNxU2fNXyY0lv/OV1gTb97UlqbKfS7dfSbRAHk8NMQA9QAlRm8uvc43jz47zBU2YdSMCK7n8yhA0Da+VlEUmIPAsvEGLbW5IfZQ2kB9zRgEb2FxlRjbS0c9fI4WyRzEK1bIBtn6wWvettuYgubTARrp6h4A6qbG5kwpptReyX9vCUfvsnnSJapyZqdu44jM0c2CoBPhQqOpFolzNSsKjbXBF4jwMvpIE4VANcXP8HFu/+Mm48/MSeQi7v2YAalerL908MFFp+z/ZU1YXh5ilQehbHM+mHdv1b5xgKAwXACE+XDOLbvB3jzwJ8KAKJwyCqDXHvpORRCCkVMVq1KnWCCGhJUESYKgJ4A1evB3c5bfOiEUA7Qfkqn+O9+lV5U2/Z3Q5WWwVvUlVlda5SRg69Cc2qtLk2iFqXMCYIkKGNOAHB0YwC4NKtEUMgJ230AkFp8S8s6D/ZkALDVm6VamrfvfxSpz7VUcb5oWXF4RrwlSCl81vmnzKYpAKgFSj0A+L0MAKVgKOMjRffq4WF6fIyYqVWdXC6gp/BZP6AAkPt11eq+gCVwlJfQnexFQtl99vi1Zhey5IK/qtA9a5+jz9jNCvHGeMTdLj/sQh1imrzcETLeIoyFoFMNcA1HNmoCcgBYLqAQjzrhIo2Ydpm9ADiFi3d/ZRrg6QBYg4jP+IU4f1YUKrufWUYBAMfEPwkAf4ah8l4IALzMK6/WsFZ0Jpko/IZMEEsDBQAHOnkRScgBEXY6ifc30OvoLZQxqD7NP/N77At6ireuk9RNlYsJiLRFRuJk/Ual10MEMdPhZh/MpATsNgqpmUPMzl3FkXUOBHnq4dGXZ2kCqAGebwBIVpj2MmQtY1MYTc7/4TxhOoI6BkY7lCLpKNLDq9h0wtcUAZCbqo3Cuvf1uq20l4Knpck8w4CtbawskoyIAKAUlBERoGlFsqHFRIJEFtJzE8iImFf6uryewQlUAOQ+QA7X50UDiLMu+YwuYqlnXEI7XUCXPICEKIwEGAVRzF1EQQehnV4mwiOfHdUAABaASURBVA8IAO5MdYSdMu6lbfp9gX5SZz1VoW1rclSeASCRwhx1ehl9REGIWjSISjCEMoYl9M1OY+GlSGu9QpeNvodf6W3zeyYAqA/gTuDzBQDabXFjZFd10A1W0YjvYyW+jZXVBhptto9xBhALzQgAOpisJKa4qQEqSGRXhkgCHTVFr9ssdTFtsEF1oGKWJhkBG30cnoBGs6T1BqVShFqphrHyFIaiKdTCKUQYQCh9EGoiXQPw3wwD+/s8dwHgIWQaYzVexEr3Hh6uzOL+8gUst+potNk0onn6IGHDSQehlJI7B8HDqAgCA4ANfxaAFE8x2aD43fnLSnCl5lLzCR5ulqMSBspD2DP4IvYMHsSewVcwEE2Iw545yxKtEOER5uauYebwhnkAjwKeVw1ABylGN21hsXUL91bO4dr9jzB35wM0O3W04ibCkIQQh0oymdVBFDKc1dibwqeGiA0AenwNtUPvpNBNyd8S7zKAQmJ8cjE16ZZm32IpKGGgMozpsa/ha1PflHzHeO0lRMGwOoXSX2LUvYWBMzOvbiwMpBP4LCbAg5WYPACJoKUzuLbwCS7e+SVuLnyCpMyC0C4gSZGtJTXEydpAFDBVeQVH9/4A3z7wbzFSeQEVLlCBfiSP0ElX8WBlFtcefoTr/Ln/IVrpCrocYm2DIClUjpMLqQWsLDZNy8o/FDRAFrZtqfBVV1QdQdY30EjREaXG0VIzqvpKOIiJ6jQOTX0bbx58H3uGZlAKWfQqhQwGAGoB8gA3MDNz7PMDAL9QuoHSFm4tncHVhZO4cFsBENZW2TKLRCZzfnEAGAonMVU9giN738W3Xv4xRivTGAjH8kbWkMMiEnSSJm4vXsCF27/Crccf4/bSSXTDJrpRG4kNk2SJGA+wCNMcAIkcSklH0Kgxnx5ip5WuMwl6A8rAUtAySpdRgGUgvb81KQlJVUsmcGjidbx77CeYHn1Vch0Eh0xj9YmlGQC+/jkBwLiNLtroooVb9bOiAc7P/xNuPD4JVBoCAPWmv2gAvIJXHABlBYCqVa20YH0hATC/eB4Xbv8Tbi58hPmlE+hGq5K/YCTA22PCLmJxiB83Kw1CDAOtYUZTlOqlZzMNtpLB0zYczTiS9dOGN68PJPETJTXU4kkcmngTx4/9B0yPHkM5GJd5hEq46YxmmhAygTOHN8gEPisPoIQgI9OOAGC+fk6SQedu/QLXH51AWl4BolgYta0PnXx2E6AaoBcAtYCHSPYDoIH5xXO4cOcXuLHwgQGghW5EalsTTiSPBACmkrnZVfh0AAs9ApKdVNq20D2xgZ2fs39uAhin6jdb5RMrlZIIpZgA2GMA+AtMj34dFZa9S70jAaNOIP+uUcAGncBnYwKVBpRaPfMBbi2fx/XFUzg3/wvceHRSAEAfQJo4vkgNEE1iT40m4Di+9eKPMVKeRlUaQzxDxyWiBiAAzuK8AeD20gl0Si3EUQddAQB3v464pxhCKxLVwyZs6JQnZ8TrLlZOb1bjeYeATT7jdzEnYWPpBQBJDdV4Lw5N/C6OH/sL7BcNMIZQmmB9qfUvEvId2WA6+NLsKcsGPo0JzBlrUsE0A7eWzwkAzs//AtcfEwA0AezCKfLVG9wUhZc/qxM4lAHgPbz20o8xXHpBAWBNnBL/EwApTYAC4ObCh5hf+lgAoBpA3TFtJqFjZenmzAQwSabev5eHZY1zW/Z3rN5BGD5lHeWUNSl5CwUANQHAW3j32F8KACq8P2mM6d1rc1cJgA0SQZdmPzEAeDJofSJIZEMNQDLFfYDFT3CeJkB8gKaYAE7q+CI1ALOBk9VXRAN8++U/yTWA5QKUVo3lmm8vnlefZeFD3K5/jE60io4AgGq+hCjQFnSZOyAMq3dJEQDaEu99jwKAvg6hHL9PYgFtEe2FWW5QnApl/WXekdQmJpkJUA3wFo4f+6v1AWC5N9EAG2UCL82etHTwgGUDnwYARgFcsFXML5/HjcVTOEsN8OgEktIK0mibTIA1fug6MRvY1T6BLBuoPD2zgZkG2HMcv0MNUGZr2EjW868Z9a6ksG8vnssAMF8/IQCgBujazqP/olZdZxKyutlbuaTlTbqVdLiVnoxaGGKV1RDklUK53nSb7wDIqyGyElMZukGbTu9ei1OpAegEKgDexvFX/xP2iw9ADWCJIe2Ska9S1m+DPsDF2RM4PHNUKEZNBz8dAGIC0hburVzCfP0sTs//DFcffYR2sCgZO02rrk0HP7MxMBpMCyA0RmY2sB8ArAcgAEZKU3hh+Os4MnUc35r+EQZKexAFQ8Khs41cJphQa6UN3KEJoM+ySBNwUkxAp8QxdSWJ9elZaz+hTZgp+DKy+5l7l85nrjl7FcnLsxKoKGAVcrHgpSd70/+cVSFzXbUCowgAdj9VUU324tD4O3j3KAHwTVQZBbADQ6qvOCvJAXBVNnPx8ZlU8EUzAQIAzte3d+sNeALUnED5DcfCdLCwehMPG1dx4e6vce3hp2h0H4ijtV7Ko3cBetVg/3PiFkl+QwUhAAgUBEqUEGBMzbBoO8J4bS9emvwGDk2+hUMT30E1GlO+PGDLtQGAoE0IgDM4f+fnuGFhYKfUQSeKEXPAlCw8TQC/l6Fg3hlFYyuDpQUE1D40E9at3NPvr4v3LPUOrh1kuI6M2mEYaPWFcoxOLNPLoqSCajKFQxPv4PiR/yoAqISkg/VatYhXC3ckCtgoE3hRmMAjcviShhVFS2YVQRL2sLJWdyQdomb3MVbaDzD34AxuPrqIxZU7aLYX0GUjpiRSio+susP8g6KG8OfUk83KwT2Ot/BTzw42sTNcY4I0LGFyeB9mpr+F/ePHhCsvh8NS3qangmr2TsxWsoL5pTO4cOdn4gOQB6DwO1FiAAilclfeJZEVG1w0QygAkFY1gkAPkwilV9HPEejf4736rndNe9dFK6IU5F43pSet0gfQ9rdKOoFD42/jvSP/HftHvyUVxwIAqTUsAoBFoRtkAi/JhJBXMgCsvXRtec4GKCm3IoJux00sNO5jqfkAzdYjdOJlqRfMT+LqB0Fx9xMimRvUo3dyIOQki76SYRp3tv8oVz4xvA/DtSlpFQ8Dre7RfegAoA+winnRAAQAeYCP0Y0SdEPeS04ECb8uAIik+1gBYCVpIiT7ZHYpF4+ie2Yb1/9C9QIk/+/9hxYFcC4TAVBNx0QDvHf0f2D/6GuoCBNoPoDNGlINQABskAgiACQXYBpgvftw4evYNjJmXpcGnRmQdGTqd8KTwUJ24fSep7O5tcnLrTWq0Bp8+dPP/GXcTrUdUh3y7zo7xMY4mUahBiAA2qIBzt8mAH6D+aWP0A0D+YnpgJEAikwJc3RtShqWyRmdR5iEvkvVNKiPktFNm7tFe5cyi7xf1a5qAxkGavtbJR3FjADgrw0AJIKKPAA/KDYAbNAHyMJAqWNf33kr7n7Zw8KLW/OkkCictkUnRm3k2gERRSXoa9XrJj1hX1gxqe9m9co1E+Y7UAXPGD7fkXkxpu6uriSw5pfO4vztf/xSAoBmxWsNcgDQBDgA3v68AKBRQChn3D0ZAGsE5DP1sie0mFJvYj2BP9kSrrWgarkVWAyJ3BQoaHy8ugpcu3FUP/S+jq/VgV8cbEEAUAN8+QCg16kagL7AZwOAJsCc5MzZ2qQGuGw8wLMAoPeQ5MJ0DLkBFbBFcVtSiVq/YwCwootc3RaSLzIPUE1CzsoX3E8rwt0FwGEN7mdnZ1M9ISx/XHYqWKZtPl0D9APAP0UbZOw4FKNg16p0/c2zcmSuSTRN4+8tvjv/LZ3CNTk5Uzgat+xqgKcA4Kw5gXR4ni2p4bs9s+YyxGE9tb9JReAj2AtxQv+VFemqfu6tGMvuAoDs4FM0wJXZi3yBec/rA8CF6xqgKOxcKxTi+a1gQS6hd2JpEUYahuWPtVY/R40bJSkJQxu3d32AtSZg1s4O7mevehbdHD4XtkQBtuNzABT73dbb+RtxAjUJkzFj5lzobi4IX48GWKv+zfmTt0kBh9YE3v6SRgE76gQSAJwP8LTH+ju+/x0OgK3NCMw9BW2Tyj0AH1ZlrzA10E8VFSMKb0fTolBqAIaBXz4eYEcBsN5Qgc1Z7s8CwMY0gJ/Q4ABYnzUofmaRUjaVYQ0WdCiZxp5fOrcLgP4oYPsAsE0+QIY+j0jW8UsKffPFplOv1vUUqzqDEl2jiy5uZwAgFfzlYQKfEw1gkvNooN9b6/fk1osJ84379LFZ2cw+BV2uB/zfllaxaxENkAGA2cBdAGTimJvj6eHbd3j0lkvln8X+9ABAUVMEQXHmgNDYAoCOaYBdAPQs8dzcZQPAFoo41tvdzyLIrbymMLnTHT8P+zytqqpVxc8ahl0TsA4TuN0A2AoFUMTDuumEdQHTP8jZWEl5rWfbOV2kGAXsmoDPwQTk+69fTv2gKLp1T3rOp4M9k5KwD/TPyjWA5dql87YvDKx/hA6LXJkStkOv2BkklQGc+C3pYK8H6Fo6WInpp6WD7RU9l100UE/iW9Ykg6QqWMfhVtNRqQl87+j/koIQrQfwiilnxjaZDNq+KECzWHS41ntsJAiUfJ8XZBbKrj9rmGZxnGsvGDjlnESQ1QMsaj1Ah8UgUhCiQ6nl6FiKONERdDkAtCRMqnakH2/9egD3PYp1AkV/RP3e9WsIPJ+SZQP7ADCTAeA1mYbeAwD54B0HgPJ0eoDcRh95yJC1Pevxn1rUYR/4VABkgxz1uz0oVVBqRZAQQXd+hutWESQlYRyAbYMeQ5sSLkWhiZaEsT6QxRn0I7Lx9fINVhhSIKZdB/ZXBfaGqr06INOGXleRtZxrZZJWBI1oRdCrqgGkMcSS39lKBwnmhNXdYEHI9mmAPATT5X9awUf/c2sBkBG86zVePEPOqhcArApezWoCry98iFtLJ9AutdFlUagMZrDCkkJRaGSHUwig7KBKbRDhHcqkwqwLuVhN7YjN7rJYaV1ImzuLKXyntIZpgWhWARXroRgCgMm3BQDTfQDIN0eCuas7CoDefac38SRd8DRwFAmCZ5D0E5RNbgKUBorZGSRU8P/D9cUPcEs6g9pgZbCWhbPMWvvt2BYmp4NaZbCWfnPOnA2OtkOv86N1rJ3Xl2DNfa//vA7HtnyGa4DCSamsCpZTUcQHeAfHj/01pke/mWkAqRzLUqE7rgE2qva/mNc7D6hFoQUA1D9Gu8zGkC66SWQA8KPpHAB6ZoLM5MkAwDFz3sRRmAP4LJ5tBhC9dy0vt/3uE9mLDSZWFq4AeBvHj/3PJwBAzdQOm4AvRqAb/ZYcAN4ZxMaQD3CLACg1tT8wpQaIpDVMhcLmUNbkU/ha+i2qWUBgZxl5CbuAo8g8mI3PBlS4B6A6yVvKctutIMtH8bk5ZHm6HYsjAGBrGKuCqQHsVLTM2+EHUwNsojFk+3yAjYrmi3m9isacQOkNZHv4h7jFMLDcQCdqoSO9gSGiULuDpTFEQjA9lZwgUAA4CGivtTfQ+3uzkfg9/YJ+j3n7lju2rgM07lB/QusXCQCrdRQAlFATJ5AAYF/AN1CRCSHawJK5vKIBCIANloV/dQDQwp0FA4BogI/QKTXQJQBsJhjL3YUPdQ0g3p4e8qT+jDlpNpRJJ4qv589soDWMxS/SwaRjejV/ZSWuMf2QyKKAt/Deqw6AETvyvgAw6w3ccGfQVwMA9PQ7uLNwAedv/ZOZAAfAqh9RKYdF8egY7w7mAZV6Ekh+WolqAgrJDscyAGyM58hDVf5Nzqm2MbT6Oap1NAwkETSMQ5O/i/eOEgBsDmXzK8FajLbYHLqrAdbYFSdi2Btwe+ESzt/8JRgGzrM9vLQiY2LkqEsZ587zg9gazi5nkkEEAIc2cUiUcQvsDRSQFEpo+0YA98cuTwWHjODX79fQ1bQOW7+oAQoAOH70v/UAQM8ey2uidn2AddwKB0BsADh381dZc2i33EBcWkU7TRGzEyfUUbEyjdwAIC3pNiVMQGC9eDpBJPMAeiLepwGgGOSqG6E9gdob6ABg32G54ARSA7wJBQAnhIxoa6h8kfoPVEsKgA22h38VTIBWBHUxv3AR527+EjcWTsiUsLjSRFxuo5PQTeSEMO5uA4CcSMJsogJABkVS5NK35yNkNs559mLUJpP75BE5j5CmhQOs2X3M+QBOBL2J947+FwPAsDTHKgD8JFI/MGKDE0KefwBYPRCp4MWLuHDnV7j68CPcePQxknILSZltYzoESoY2y5xAO0lMHDIbE+cnq1ucLnMZTJrPnrnsU1EyC8gmk0tLHXcyx8DyBJOKnnEQlzCAEcxMcUrYf5YxcZyDKA2y5i/oQZScFXwVhzc6LPr5BwCbQjgfYBl3li/i8oN/wdy9D+QnLnWQlmKkUYXGX/obmRuMOJ1DpoVRA9AJ1GHR6qlLPjBvDt2SEuB36ExiNnfKYRs8YZyjaZMKknYiABiKRnFoz5v4/qt/henRI6jwQIxsCgFb2Ell25CoXQD0K1lGAG2002UsrF7DbR529eAjXL77G7SSJjoUemkAQVhCwlGxaUtmBeuoOAJATynJAcDe/fxIHT9CYlOshkwDpUOpTqUeU1fNzA6JqVppEFMj+3Bw8jV8c//7mBw4gDLH21vvs2oMncskm3kXAP0AoP1vo52soNG9i6X2Ndx8/CnmHpxEo72C1W4bYTSIMCwjSTixcxUhmjKCVabw2VwiAkDEJQc/cdfaEeObyH36FTrp5MQTAZCmNQVdWkGlUsVQbQgvTOzH/rGjeHnkbQyXeSYSKWvlJXQw5y4AnrIBeSZAjG63g3ZaRxuPZLzNo5VrWO200eoyrmdfJA+Nou1vIwpW7cAIEvS9GkCOti+ep7Spre8EHjVJx8JODp/mmDiLOlDWcfHlCsYGxzBWm8Zo5QiqzgI6AMwJ3NUAT4MAvfwuswItJFETrWQBze4jtOMU3ThAHHPRI0QhD2igD0AT4OcFcGybnhiiCtt5/y0Zf2OCGFFw6BRNDwdr8PP5XXqeYRgBpSjAQKmMWjSKajgt848kgeSHWvWHgbsmoA8JdnAkTw9NmXMPuugGPDJmBXFaQpyW0e7wgEye+AmUQyp7HUOnzhkBoOpfQGBTRXuLPDarBggAP9y6ba1wmpjid/m4uFIQy2noZUwgZIQgQzo8L2E8QGCjYjd6ZtDzHgV4aZCcGiYAYHnXKmI5O5AOVw3tdoQkCVErByhLXaDaeJ3Fz2yf2X+zvLnwt0ELZIdN+pSwULgAQkMHRvKMxI4kpiIeQWvH4cpznMwqBQG8RgfABkfFftUAwFhfAdBAGHI24gA6rQhJHKJaCsDCUD/fV2cd6VBoXWQ9PdVShgaHze7+/H16ZqCygH6CgEBLyAaSTjoyTqaW2WGYCgDLSwhYHAC7TOBaibjD7Ac3B1S3PBWEMxEqInyekRypjLPMnwIhq9nRz/XnN83+9F+eFYaJxPPj+fSfenBUFib6gGoxAX7GsV/TrgZ4+lbUPGsu3MKhkL05ev8Yf61X7hU/vpDf37ICKALAPqyvwDXjGnrqI/uvwXMBu1TwZ4jEBZtX3jx5MkpvurWfYdiy7HOVssmP6s0zbur4+OfeB9jk0v42vm0XAL+NUtvGa940ALbxGnY/aodXYL35D08dErXD17v79Z/zCnzmuPjP+ft3P36HV2AXADssgJ3++l0A7LQEdvj71wBgh69n9+t3YAXoBP5/I0TvnRycTkoAAAAASUVORK5CYII=;imageBorder=none;" vertex="1" parent="1">
          <mxGeometry x="690.5" y="546" width="28" height="28" as="geometry" />
        </mxCell>
        <mxCell id="QFQ0FHn7_Ai3rc_ZJZsc-54" value="" style="shape=image;verticalLabelPosition=bottom;labelBackgroundColor=#ffffff;verticalAlign=top;aspect=fixed;imageAspect=0;image=data:image/png,iVBORw0KGgoAAAANSUhEUgAAALcAAABsCAYAAAAolyNzAAAPEXpUWHRSYXcgcHJvZmlsZSB0eXBlIGV4aWYAAHjarZlpctw4Ekb/4xRzBOzLcZAAMmJuMMeflyhamy13u6NVlorFIkEgl2+B3fnff9X9h5/so3e5tF5HrZ6fPPKIk4PuXz+v9+Dz/Xt/pD3fhc/nXV3PF5FTiff0+ljPc/3kfHm/oeXnvHw+79ozUOzPQM8XPwZM9uTIwXNdfwZK8XU+PJ/deO6b+cNynt/U7hBvF3/9nBvB2IWTKbp4Ukiev3ZjTK/fyW/mb0yDi8I9Dnyyv/XXsXNvh1+CN9qvY+fnc0X6HArn63NB/RKj53wov47djdDHGYUfh/HzF2P7J28/x051d9XzWt3MlUhV9yzKP0PcIy4UQpnubZVX47dw3O5r8OoscRH0TTaF13JhhEi0NeSwwwwazn1fYTHFHE9svMe4YrrnempxxJVeKeAVNLY00napk41F1hKn49tcwn3uuM9bofPkHbgyBgaz/P30cr86+U9ebwOpWumGYMEk9eGV4GgFyDQsc/aXq0hI0Cem5cb3vtxbWt9/LLGJDJYb5s4Cp5fXEFLCe22lm+fEdcVn51/lHtp+BiBEPLswmZDIgK8hlVCDbzG2EIhjJz+TmceUo5CBUErcwSm5SamSnB7t2dzTwr02lvg6DbSQiJJqaqRmpEmyci7UT8udGpollexKKbW00ssos6aaa6m1tmoYNVtquZVWW2u9jTZ76rmXXnvrvY8+RxwJCCujjuZGH2PMyUMnQ0/unlwxp0RJkqVIlSZdhsxF+ay8yqqrrb7GmjvutGn/XXdzu++x5wmHUjr5lFNPO/2MM5Va06RZi1Zt2nXofMvak9XPWQtfMvf7rIUna5axfK9r71njdGs/hggGJ8VyRsZiDmS8WQYo6Gg58z3kHC1zljM/Ik1RIlkLxZKzg2WMDOYTYtHwlrv3zP02b67kP8pb/C5zzlL3b2TOWeqezP2ct19kbc/LKOkmyLrQYuqTAmxcNGPnH3j8x+8jjB4nBOuMmtaITUqL5cSsobQ9Rt+zjk0Ok19VR/arM7EwDvBJ75cjYSpRAjdbWnskFwfxEEmtlbBbyrqZNSkDUU/1qWvcLLc3Mjh8GqGstm2ovo/WFg8xthoJTuLxIS3p6cznaVMGoa4DnK1tkNGoENySFI7mNXWslWuVMiepSHsX7WM5ikLjqJsiOkqpyBYtOZBvr7HnNYrfe85ZAnJjSCRRXEj91hr31uZnW6D0cFVTzDtYLQR/CougM8bIhbOzIRlaTrVAx6xwtzrXXADoEI2rgvzUqMAuifSXOtKJ1AzVMAbEQdUQZI1zdeqh6gwnDa1TU4ZlI4gG4/Wj5RDqtY7s2KY44YKU+64jZ61jRllbMz1S9jpjwigEPB3WN5IIEQtnNV1VIFBqrwZZgpY4bp8MqUlfvYbCCJ2qLVa9VcNWIZOetDYJdGMuDJ9rt4NcTJW8vTeX5MTFSLXL8ZNlVWF65KzGfk5YMHJNnS8zPXx24fm6IlV+KeVmeTfo28V0q4Jx2yw70CCDE3IQYM2+SbpbUe2+26cT8odx6BXV1zjwGhd9GcW/jfOMYhLAVMOnUT7Mxibj/o3Z2GTc2ygrUD4KwS+yufLcYfcMfCSJ4FndUioSoU1qOlN8q5UqgGYHZ6h/1AhFFWrdoysJrQJ6UFV9B+0nj8ZDwa9sBQnUkPyyis2rHeZC+FVHuI3l6GJAkMqjMMHwMdtZOS5r+yGpB6opMYHS41rqp56thgCrU6M8+YCeJJ+mndLsGYBF7z4VFQoLLKUcmkpKoUDUYyGRJtjHpTcZlPOkpTdjyBwnCwjZKcUZCQbThhPSBAf7PLMVjtCxA1EgBxwXm2wUaGEuQ4YxqtAU4sHjRGWj0w/CYuukhndWmgCYgwfggiXgcmNN/GHRAArtF5UQLyjktEZzpI5i4+WgrFvozST+z6X/ei/kIMgGQ3ekW9Elg9IIzBN4BaZCG05lRfGnQwd9MwsQcyxIyEgLOjhda+f6MwO5y4F/AV45jVEU5sxPzLqbxLT2DH4znI9LAsTGl2NVKJWsTOKf228LFTRPrnMlOJ7BLQrRGHhEmYkldEMgayBDkduRQ8mWacQ78Ew0TVuMd+uIwppH7gSDdVAUGFqzXGD6dOlPV/ZXu7+e4/R5jLHefZC5DStxUC5b3TbNKNWpc9xZZW/oH+XcYTasrwcc3A7BcuTMG7RNTZxmA10C/PjOapUAAXtQBrAOL52s8UDUPBEN4HSDyAtfQdXTCUtBQMwFWob6xKEiWTST1TDTSsA3FFFIxBxUc0Y1HBk6toiDBmWdRbaqeoUp6NZxVk3QVotzYxnWRpnQ4rMsFBPKonbQf41NU6IX6KG+1B2oe9+KXAAtQ9Op/bWiHMM8XWIcqB5voOt7KrRcOh2KIsUyQs30k7TgonExnNYLX8vCbEom8wQRajpxHJqEXvDlQj9O4BtB4b6eiCaPaOA6w6x7lcmiY4b2kDBIveaROYE6sLQMJFMbkZo71QlCK5yKodpQiT90BlEm27la86xq4AEuKpCgMfYBBEKD9Ejc55YNAonYOphOFiJvW2gRGiVNY/1dJthwZ0nJ5CM/ZpysgN7L5616SP8tnr2xFsibXZEQHUUqEeJsSFsqOJri5WpAERdeGTn+NJZ7L8XV26EGrMYHdjKJAtO31sFBYAYsmNRljq3EJDNv3dCzmKa6vRbyRqDCWs3Uj6roXTn6vBjrTEKVn54nVE25n48nRmEV3WQbtNTFwQ6oUcBzcQY0XXlD3Ygn6ydmgnxB4SQUSIT0qSqSpQZNyLeTNksnC60KBUkHTdAF+dhsDm3Gu1huorEhBoRPhpvm6GsllTz5gg5Qlj2QfabKDwSJL+iIoNDO2IGaQRX1HREPJlBQSSYcTModgM2r9I6cXsWmTiriZP2270GLRKwkE+EGwgev3mAb1IdXEqqh6QWZcYNK18R1cCqjVOQ5Ha0g9DI6ynsNY0maGT6HSheuINvToOS+LFMo845EokVK60KBn4cX3jvG/bFGp1jBBwwAjydvCKquMqIrGNyEmYE/QsPwboSyztLmKMZR1TTgljxMtFJrWGTArCDdwVMhYX3hnyAkdyaaOp6ADYERFeMCM3kKPI8hGbdiso/eJIwL7DuLY/jCIM8ua9TOoD+nM2zga5AxoALnA0WwmFKGZ0f0RowIDwqkQI1Xg4CyAC8a8KBzybaesxy0MOOe0Ojv4N6bzIAk9iVciqjQkZ5q8mhY6jZVt31rQCA807EiNZm0xysbsvV6dsqCJJ17IS2qMV3repJB5CnQyahhDg9xbrfMs4K5gA7LO3qJAtP9IkT0Pn1Fd95uW0i9w8w3gMoFgMHajeqm+bojosksLK1iVgf51kEiPAOwx8G26XXjbpwW9ia8mK9CKbe1Ye95BazbRkN2quM+8SfMInS6jy5bw1QSCJfhpYB8R9UgH1nIVVKpA2N+t+khpunmQW0e/DwOtMgRgI3lVZp2nJa+e/7Hxxuv5+Vwz4ZFKgAeWPRIS7rh9E3XqAKIYBxolTBPUCKWz0tBsOCzt6k/pbxPdA18Sqf1ZaB3KNyIR/MtNnMMMEDibRBTRFxtZDKmMHEUHVsnoJHPccOnfqD8zWxjojKONhZsKvoobZwPeScl4IZAifmp1JG+aUP39/vVdi5YVjIDaDsfm4nMRfnQptk7rB3iYcMcR/gCnaohkj2hjOOkuaH/QRro5YZuRYqvZQH2XK6TGwqdgS5yfuPMpbd2sIIJhMwAEa43mMFlSfXQqbMUYNpPCjF6sAFYmugbcker0Z/goMOZGfGL3QmSIY+Yp6dVUkL+72S0RLdHojiBDOwF9YnXxy0gSrArdycqqCvkBpPtEeQwezhgiCkTlEVc3WQg48LARhoLnDcfghEJ12ShwOqL+RARI7yUYF0ACl2ICwVlzNgSTBiRdJtTCxYVSA16y/IIxf7Cd956zk6tKy5Y+B31JTXjU9HbsqWTmVCQTRE3YByOiwltMxJYDPRU3CluYKRSjOg8NFhBGvqrpjpX1rtnUFt62zJ4CmHSvvOiQgJY4XU9SCE3TNaLnUTmkIZMuKi6KPhpqmR4Qdrkus0j72SepZ9RxMjOsopTgLgTWeMGqoOWoYWxiC+gTX++A/QdHdnm75oXT8MtHjMITYNBNhpXJpIS10HZFag3e3F0qenEdGDgDbgxmdKEzHliZ/tiu9guCrKgDQQuRZHxW30gBTk+QJNHZB5xOwrVQmwQ0WWYHrMtnQy3k3niddeqg+P6gST9YXId5xY0wD2EHJ2dcKIC49jG0h66Fn+oywZdN9ubKuckahSFak2BI0UsA8Ymi/fUJWCcbdZxH0IdJU7GoNhGoG3nCm9IFQPgw6QtnDeWmkOwyZquBGZNKSXWMBOSwlQtiDrAKyQvkADZgGk1SzYimxAwakfaRiOHWIkiMhOqrXQrc8XJFUyl4YTjYzxLKzSxZgijHvwBDVUSfoMoci8rxufWwOKGXnVVVzJ6ZPEe+QTwbnz/7A3k2HAm8hrMVYiv1HGQYiBmJFXoZyBLzIPuAU4x0Stq6iKO1xHQX+7HwT98Z8KgFQXHjDCzLA7JtzIgYNyKS82gnkkaXCPGCGU5xMQOaEuTCyRutjug8UvGCiERXdqIS5mvGgE9Qv92Dg1TMG33oSzsMiVBS+6QrTg75niZsuNJB1akc+8ewbKKwmFc+zVtd/wvV+r+ZihwjqAsGilRcKhcpM88tMDb+p1c0/Aegm7bAlDuko1kRt4l6OEFChry/E3347xgSx9xoqdgMKtt4qKzqeQEa7HwZlYKulXrSwzc2Fco21YR4LuCdZXtjXjb7owQN8JLr9WnE/AN5mnMTNpcwGfczFfr/fHdfffFL97B9G7/7wGnJJwKRhOR1ya1ntd2WJAYbYuefyNIRnH5fnc5TLsN2+G+2o1iSabd0kutNHO4WkMRH7ptv7qDovYZRUGXTP+ipuf+T3ejhbjbaO1kI3VdKra7p5iYq9gU2GTiwIpgFBFZ9LsnfQnH5A3wyq7GdfRe2QmBjfHPPS/k5ug1ocgouFKTK68WREYKMyA55WpFxDeOZTSYBr3c8rNb1Vd5L7Gaz7w8i5gXBzJ6pbSsQaZQQquYjsT4oZRf+7wHSVD/qmTd325zgrwHsfg/Ep1NTqQqt6MAAAAGYktHRAD/AP8A/6C9p5MAAAAJcEhZcwAACxMAAAsTAQCanBgAAAAHdElNRQfkBB0RDBJUGi21AAAIxUlEQVR42u2de4xU1R3HP4NblrK8H1WCdwVMU5hQqa00WpkgM4m0tb6xYmLR1vRFbAslvURqbUmbtjNNrIgPio+UtIa0GAPSFnncDTpI26iA1Qy1kq3OGFAsonVXF3ls/ziXMrvusLuzM3fuPfP9JPPPzOw9d8797C/n+Tuxzs5ORPhZ2tI8EfgM8GlgMtAMOMA4oBEYUvT1DuAt4A0gD7QCLwIvAHvSyfzReqizmOQOrcwfA+b6rxRwVoUu3QH8HdgK/CWdzO+W3CIIoYcB1wI3+kLHAii2FVgL/DadzO+T3KLSUk8CFgO3AE01vJVtwK+BTelkvlNyi4FIPQX4KXA9cEaIbm0PsDydzK+X3KK/Uo8BbgduBT4S4lt9GliUTuafldyiL2JfB6wEzozILZ8A7gWWpZP5NsktSkXr1X6HMYr8G1iQTuZ3SG5RLPZMYB1wTsR/ynG/OZWOQodTcldf7K8B9wODLfpZ64Cb08n8e2G+yUHSr6pi3wE8ZJnYANcBLUtbmscrctef1DHgHmCh5T91L3BpOpl/TZG7frizDsQGmAZsDmsEl9yVj9o/AxbV0U+OA1uWtjSPULPEbrEXAGvq9OdvBi5LJ/PHFbntE/tCzDh2vTIXyChy2yf2aMxa6YmqDa5KJ/MbFLnt4X6J/X8eXtrSfJbktiNqz8es6hOGMcAqNUuiL/Zw4CVggmrjQ1xd6yWz1sq9tKX5bOAS4HPAVGCSH1WGA+1AG3AAMxHxPNAC7E4n8yf6UUYG+IE87pFXgGnpZL4jFHLHYrFI16brOcOAmzDbtC4s4xIHgUeAhzOpwou9lNUM7CPc67FrzeJMqnCX5B6Y1EP9CPpdPzpXgg3AjzOpwvMlylwFfFP+npZDgJNJFd6X3OWJfQVmHYdThcufAFYAP8qkCu1FZU7AbKwdIn975TuZVOGeWhQc2dES13MGu55znx9hnSrWz2Jgl+s58aL3F0rsPrPI9ZyaRM1IRm7Xc0YBjwOJAIttA+Zhdoi/Apwtb/vMpZlUYasid+9ijwSeClhsgGHARkzqA4ndPxYocvcu9hDAwwzviejQDowPumMZtch9t8SOJE3AHDVLSkftecDX5Ulk+YLkLt3OXik/Is1syd0zS6hcllNRG6b7QUpyF0XtUZiZRxFtYsB5krsrNwIj5YYVfFJyd+UmOWENUyT3qSbJmcAFcsIazpHcp0jJB6sYJ7lPMUM+WMVo13MCK6yhP1/O5pgIzMesrejLXH078FQizuYy72+qfLCKj/rNTTKpQnjkzuaYATxJ/0culmVzrEjEy8rCNF4+WEVjWJslyyl/SO572RyTy/i74fLBKt4pGiwIldyTatBTjskHq+hyuGu1BQ97h/I9+WAVh8PaLKkFB+WDVezv/kY1o3dDyCvjT8CxEp81AdPRgqookQ+ysD7vxMnm2MPAxp3nJOJsr+TN+xtPL8Hsfo/LndDzLvAssBtz/vwW4G2gKkODkZa7SPImYDuaqo8ax4GdwKPAI5lU4VA9tbn7hJ9T5CuAEh9GizMwG71XAPtdz1nres75kY3c2RyzMVlRhw7gWi8D9yXiXXvfrufsBC6SM5FnMyYR0jORkRszbf+7ClXAS8AFiThtRXI/CNwiN6ygE3gAuC2TKrwVhWbJ8gpe6xMU5cX2h5Ta5IQ1xIBvAP9yPefKast9bIA3ewzKmoI/HU6R2MJOxgLrXc+51/WcxmrJ/fgAbvAA8ByaThflsxDY5nrO2GrI/QvM2S9H+nlT/wC+lIhTlWxDitp1xSzgr67nnFtRuRNxjibiLMSs1Bvdx9fwRJwZiTi79FxEhfg4sNX1nF7zNfZ7+j0R5yj+rJIQNWIysN31nFmZVOH1SjRLhAgT5wKPuZ4zWHILG7mI0xwL2LBjbyyGmfi4Npsze9wqyMm1A79MxGnXsxBV4Kuu52zKpArrempz/wS4o4qFJ4GLszmlaRBVY5XrOdnu7e9BUNbG3f4yB6VpENVjDHBnT23uEQHdwCg9A1FFbnA9Z6Y6lMJWfiW5ha3MLo7eklvYxvdrJXelUzV8oGcpujHP9ZwxEPzu923AFRW83vbijaVaRCV8p+cBq4OO3N8GnqnAdTqAJYk4O/UsRQ9cX4vIvR/4LCbDfrlDkJ1AayLOu3qGogQXu54zpFZJeVoTJbKMZHN9u0BP39t4oGQ7vzhHXSMwRM/fahqBmaHKONVXsUtx+YTCIrrNuBb/ExW1yccDVwI/ZOAJPkU4mVWvQ4FvAg8C5wNZeWAlU+t9nPtt4GoCzj4qAmGKJnHgELBa1WCf3EG3uZswm4y/nM0Fc4RE13Z84RhmF/+3Nh5w3iz64Gm5YB1NQcu9EpPTr1Y0ANf4/2SfL3pfw4r2MTLoZsk1Ifnhcy+fUBiq5283QcsdpjPcB+vxW80H6lAajqgKrKNNchveVxVYx2HJLWyldRDw34AKO6T6FgGydxCQDqCgJ4AXVN8iSLkbZk3r/PmOvbFXMcN0YytcQDtm7cZdqmsRMDu6HBuyY2/V02eH6UCm0RsPOCcTen4Kc3ycsIPXgQnqUBpUD3axTQ/1FCNUBVbxB8ktbG2SPCG5hY2swT+cTHILm+jAnEasjpSwjt9gTs6T3JlUgeKkPiLStNNtQlKRW9jC7cVRW3ILW9iF2eWF5Ba2dSJvxpy/1IWGeq6Vk5uHS2SqEtHgVkosylPkFlFmJfBQqQ8lt4gqjwGLT/cFyS2iyEbghp7a2ZJbRJnfY5LL93qqhuQ26BjBaLAcWEAfj4tpUH2JCPCGL/WW/vyRIrcIOxuA8/ortuQWYeZl4IvAVcDBci7QRe5SR3kIESCtwEJgOrBpIBf6UJu7moJnc/wHGBeCCjyBmbY9SUxO1ZRO4EnMktVH8TcbDJSgO5RrgCUhqMw/dpN7ovwKnCPA34A/A2uB1ypdQNByL8Pk5ZuPOXQpaN4B1gO3dXt/tv+ZqAwns/kexayzPgy8CuwD/gk854vdUc2b+B9h9lfLlZvqkwAAAABJRU5ErkJggg==;" vertex="1" parent="1">
          <mxGeometry x="206" y="-230" width="183" height="108" as="geometry" />
        </mxCell>
        <mxCell id="QFQ0FHn7_Ai3rc_ZJZsc-55" value="&lt;font style=&quot;font-size: 16px&quot;&gt;&lt;b&gt;DeNOC&lt;br&gt;&lt;/b&gt;&lt;/font&gt;Denwa Servers" style="text;html=1;strokeColor=none;fillColor=none;align=left;verticalAlign=middle;whiteSpace=wrap;rounded=0;" vertex="1" parent="1">
          <mxGeometry x="280.5" y="-170" width="100" height="40" as="geometry" />
        </mxCell>
        <mxCell id="QFQ0FHn7_Ai3rc_ZJZsc-63" style="edgeStyle=orthogonalEdgeStyle;rounded=1;orthogonalLoop=1;jettySize=auto;html=1;exitX=0.5;exitY=0;exitDx=0;exitDy=0;entryX=0.015;entryY=0.985;entryDx=0;entryDy=0;entryPerimeter=0;endArrow=none;endFill=0;strokeWidth=2;" edge="1" parent="1" source="QFQ0FHn7_Ai3rc_ZJZsc-95" target="2PwtPd-8d50xMEnOrsVB-5">
          <mxGeometry relative="1" as="geometry">
            <mxPoint x="364.2622950819673" y="380" as="sourcePoint" />
            <Array as="points">
              <mxPoint x="369" y="339" />
            </Array>
          </mxGeometry>
        </mxCell>
        <mxCell id="QFQ0FHn7_Ai3rc_ZJZsc-95" value="&lt;b&gt;&lt;font color=&quot;#ffffff&quot; style=&quot;font-size: 40px&quot;&gt;MG&lt;/font&gt;&lt;/b&gt;" style="rounded=1;whiteSpace=wrap;html=1;gradientColor=#b3b3b3;fillColor=#f5f5f5;strokeColor=#666666;shadow=0;glass=0;comic=0;" vertex="1" parent="1">
          <mxGeometry x="239" y="400" width="260" height="60" as="geometry" />
        </mxCell>
        <mxCell id="QFQ0FHn7_Ai3rc_ZJZsc-97" value="" style="shape=flexArrow;endArrow=classic;html=1;strokeWidth=2;fillColor=#60a917;strokeColor=#2D7600;width=5;endWidth=10;endSize=5.777777777777778;" edge="1" parent="1">
          <mxGeometry width="50" height="50" relative="1" as="geometry">
            <mxPoint x="268.14754098360663" y="428.76" as="sourcePoint" />
            <mxPoint x="304" y="428.76" as="targetPoint" />
          </mxGeometry>
        </mxCell>
        <mxCell id="QFQ0FHn7_Ai3rc_ZJZsc-98" value="" style="shape=flexArrow;endArrow=classic;html=1;strokeWidth=2;fillColor=#008a00;strokeColor=#005700;width=5;endWidth=9.166666666666666;endSize=5.705555555555555;" edge="1" parent="1">
          <mxGeometry width="50" height="50" relative="1" as="geometry">
            <mxPoint x="284.8499999999999" y="434.76" as="sourcePoint" />
            <mxPoint x="248.99754098360654" y="434.76" as="targetPoint" />
          </mxGeometry>
        </mxCell>
        <mxCell id="QFQ0FHn7_Ai3rc_ZJZsc-99" value="&lt;b&gt;&lt;font color=&quot;#ffffff&quot; style=&quot;font-size: 40px&quot;&gt;SBC&lt;/font&gt;&lt;/b&gt;" style="rounded=1;whiteSpace=wrap;html=1;gradientColor=#b3b3b3;fillColor=#f5f5f5;strokeColor=#666666;glass=0;" vertex="1" parent="1">
          <mxGeometry x="92" y="530" width="260" height="60" as="geometry" />
        </mxCell>
        <mxCell id="QFQ0FHn7_Ai3rc_ZJZsc-100" value="" style="shape=image;html=1;verticalAlign=top;verticalLabelPosition=bottom;labelBackgroundColor=#ffffff;imageAspect=0;aspect=fixed;image=https://cdn3.iconfinder.com/data/icons/funky/136/Fire-128.png;strokeColor=#000000;strokeWidth=1;align=left;" vertex="1" parent="1">
          <mxGeometry x="142" y="560" width="20" height="20" as="geometry" />
        </mxCell>
        <mxCell id="QFQ0FHn7_Ai3rc_ZJZsc-101" value="" style="shape=flexArrow;endArrow=classic;html=1;strokeWidth=2;fillColor=#60a917;strokeColor=#2D7600;width=5;endWidth=10;endSize=5.777777777777778;" edge="1" parent="1">
          <mxGeometry width="50" height="50" relative="1" as="geometry">
            <mxPoint x="121.14754098360663" y="558.76" as="sourcePoint" />
            <mxPoint x="157" y="558.76" as="targetPoint" />
          </mxGeometry>
        </mxCell>
        <mxCell id="QFQ0FHn7_Ai3rc_ZJZsc-102" value="" style="shape=flexArrow;endArrow=classic;html=1;strokeWidth=2;fillColor=#008a00;strokeColor=#005700;width=5;endWidth=9.166666666666666;endSize=5.705555555555555;" edge="1" parent="1">
          <mxGeometry width="50" height="50" relative="1" as="geometry">
            <mxPoint x="137.8499999999999" y="564.76" as="sourcePoint" />
            <mxPoint x="101.99754098360654" y="564.76" as="targetPoint" />
          </mxGeometry>
        </mxCell>
        <mxCell id="QFQ0FHn7_Ai3rc_ZJZsc-103" value="&lt;font color=&quot;#000000&quot;&gt;10.232.63.113&lt;/font&gt;" style="text;html=1;align=center;verticalAlign=middle;resizable=0;points=[];autosize=1;fontColor=#97D077;" vertex="1" parent="1">
          <mxGeometry x="252.5" y="570" width="90" height="20" as="geometry" />
        </mxCell>
        <mxCell id="QFQ0FHn7_Ai3rc_ZJZsc-104" value="&lt;font color=&quot;#000000&quot;&gt;10.232.63.150&lt;/font&gt;" style="text;html=1;align=center;verticalAlign=middle;resizable=0;points=[];autosize=1;fontColor=#97D077;" vertex="1" parent="1">
          <mxGeometry x="400" y="440" width="90" height="20" as="geometry" />
        </mxCell>
        <mxCell id="QFQ0FHn7_Ai3rc_ZJZsc-115" value="Text" style="text;html=1;align=center;verticalAlign=middle;resizable=0;points=[];autosize=1;fontColor=#97D077;" vertex="1" parent="1">
          <mxGeometry x="1508" y="445" width="40" height="20" as="geometry" />
        </mxCell>
        <mxCell id="QFQ0FHn7_Ai3rc_ZJZsc-116" value="&lt;font color=&quot;#000000&quot;&gt;10.232.63.113&lt;/font&gt;" style="text;html=1;align=center;verticalAlign=middle;resizable=0;points=[];autosize=1;fontColor=#97D077;fontStyle=1;shadow=1;" vertex="1" parent="1">
          <mxGeometry x="-38.5" y="840" width="90" height="20" as="geometry" />
        </mxCell>
        <mxCell id="QFQ0FHn7_Ai3rc_ZJZsc-119" value="&lt;font color=&quot;#000000&quot;&gt;10.232.63.114&lt;/font&gt;" style="text;html=1;align=center;verticalAlign=middle;resizable=0;points=[];autosize=1;fontColor=#97D077;" vertex="1" parent="1">
          <mxGeometry x="252.5" y="640" width="90" height="20" as="geometry" />
        </mxCell>
        <mxCell id="QFQ0FHn7_Ai3rc_ZJZsc-120" value="&lt;font color=&quot;#000000&quot;&gt;10.232.63.117&lt;/font&gt;" style="text;html=1;align=center;verticalAlign=middle;resizable=0;points=[];autosize=1;fontColor=#97D077;" vertex="1" parent="1">
          <mxGeometry x="251.5" y="780" width="90" height="20" as="geometry" />
        </mxCell>
        <mxCell id="QFQ0FHn7_Ai3rc_ZJZsc-121" value="" style="shape=image;html=1;verticalAlign=top;verticalLabelPosition=bottom;labelBackgroundColor=#ffffff;imageAspect=0;aspect=fixed;image=https://cdn0.iconfinder.com/data/icons/set-app-incredibles/24/Configuration-2-01-128.png;shadow=1;glass=0;comic=0;strokeColor=#000000;strokeWidth=1;fontSize=32;fontColor=#97D077;align=left;" vertex="1" parent="1">
          <mxGeometry x="102" y="750" width="40" height="40" as="geometry" />
        </mxCell>
      </root>
    </mxGraphModel>
  </diagram>
</mxfile>
